<?xml version="1.0" encoding="UTF-8"?>
<svg version="1.1" xmlns="http://www.w3.org/2000/svg" width="1024" height="1024">
<path d="M0 0 C337.92 0 675.84 0 1024 0 C1024 337.92 1024 675.84 1024 1024 C686.08 1024 348.16 1024 0 1024 C0 686.08 0 348.16 0 0 Z " fill="#0B3150" transform="translate(0,0)"/>
<path d="M0 0 C1.14339844 0.07089844 2.28679687 0.14179688 3.46484375 0.21484375 C22.23268656 1.93861879 40.19802592 8.71787676 57 17 C57.72413086 17.35320312 58.44826172 17.70640625 59.19433594 18.0703125 C71.0602475 23.91652147 81.65300834 30.83874639 91.921875 39.16015625 C92.58171387 39.69471436 93.24155273 40.22927246 93.92138672 40.7800293 C95.18027928 41.80781549 96.43249552 42.84386144 97.67626953 43.88989258 C104.11712153 49.20166734 110.17864024 52.76839911 118.75 52.6875 C119.52730469 52.6860498 120.30460937 52.68459961 121.10546875 52.68310547 C131.81487881 52.33500986 142.31654014 49.79523271 152.77685547 47.64477539 C162.73111655 45.60070171 172.55172376 43.83942592 182.71142578 43.15673828 C184.47660368 43.035846 186.24041803 42.89493452 188.00341797 42.74560547 C196.7275086 42.03905506 205.38507913 41.84484792 214.13085938 41.86962891 C216.3659549 41.87497835 218.60084808 41.86965042 220.8359375 41.86328125 C234.87825038 41.85479752 248.7354821 42.52829123 262.625 44.75 C263.73182129 44.9248291 264.83864258 45.0996582 265.97900391 45.27978516 C316.71723838 53.55098153 368.79737606 71.36985268 399.98339844 114.46142578 C402.74338186 118.30532628 405.46905813 122.15341945 407.984375 126.1640625 C410.06334756 129.08912854 412.07851433 130.91715945 414.9375 133.0625 C428.51913265 143.55739796 428.51913265 143.55739796 431 151 C432.06239379 162.44250363 429.40270439 170.84676519 422.09765625 179.65625 C378.47550511 228.39608368 310.20062972 246.44589419 248.87890625 260.75 C248.02907669 260.94852066 247.17924713 261.14704132 246.30366516 261.35157776 C245.08129402 261.63387489 245.08129402 261.63387489 243.83422852 261.921875 C243.04505035 262.10482117 242.25587219 262.28776733 241.44277954 262.47625732 C239.72134806 262.8453398 237.99021604 263.17052513 236.25424194 263.46368408 C235.36008575 263.61649841 234.46592957 263.76931274 233.54467773 263.92675781 C232.73578598 264.05238098 231.92689423 264.17800415 231.0934906 264.30743408 C228.5184559 265.15930381 227.79174571 266.13263249 226.40625 268.421875 C225.73837141 269.84984554 225.10429514 271.29398178 224.5 272.75 C223.76604673 274.30599407 223.02368175 275.85804506 222.2734375 277.40625 C221.90186523 278.18226563 221.53029297 278.95828125 221.14746094 279.7578125 C206.84932129 307.6969858 178.6440745 332.06363907 149 341.9375 C146.67410503 342.64975928 144.34140879 343.34052628 142 344 C141.14792969 344.24492188 140.29585938 344.48984375 139.41796875 344.7421875 C131.32428681 346.81167535 123.64971485 347.13257892 116.04296875 343.3359375 C111.03918918 340.06386749 107.80008282 335.67718429 106 330 C104.95498359 319.67134941 106.5259652 310.21500885 108.84375 300.1953125 C110.2044598 294.2734479 111.230399 288.30103674 112.25 282.3125 C112.51248535 280.77807251 112.51248535 280.77807251 112.78027344 279.21264648 C113.18971942 276.80890197 113.59645253 274.40474065 114 272 C68.93713559 282.12334088 31.80022469 295.67979778 -3 327 C-3.81984375 327.73476563 -4.6396875 328.46953125 -5.484375 329.2265625 C-13.51591352 336.83089152 -24.6616783 348.8027796 -26.5 360.0625 C-25.84116992 363.93312673 -23.92696909 365.59971393 -21 368 C-18.00782425 370.0349529 -14.91413685 371.88762376 -11.8125 373.75 C-4.47373786 378.26471273 1.92089028 382.85703408 8 389 C8.86625 389.825 9.7325 390.65 10.625 391.5 C11.40875 392.325 12.1925 393.15 13 394 C13.59167969 394.59683594 14.18335938 395.19367188 14.79296875 395.80859375 C29.50411053 411.31647048 36.84298273 432.27636501 37.4609375 453.37109375 C37 456 37 456 35.4765625 458.34765625 C32.00732908 460.66230252 28.98661981 460.68684027 25 460 C22.29632322 459.0574969 19.87150653 457.76769221 17.375 456.375 C15.9676954 455.63376925 14.55881013 454.89553255 13.1484375 454.16015625 C12.45073242 453.79293457 11.75302734 453.42571289 11.03417969 453.04736328 C-8.3438263 443.06996942 -34.46690674 433.59546463 -56.40234375 438.80859375 C-77.4283905 446.3197526 -96.47779081 461.09058504 -114.5390625 473.8359375 C-115.29638672 474.36936768 -116.05371094 474.90279785 -116.83398438 475.45239258 C-118.24305611 476.45916734 -119.64100478 477.48175805 -121.02539062 478.5222168 C-125.67109932 481.99367499 -125.67109932 481.99367499 -129.25 482.0625 C-132.45135272 480.82561372 -133.19097299 479.85257517 -135 477 C-143.12272978 453.17922404 -135.89252004 424.97917848 -125.6328125 403.08203125 C-119.49539672 391.06725969 -110.81980483 381.38676306 -101.09008789 372.20019531 C-95.5035989 366.84522901 -92.7142601 362.42797284 -92.375 354.5 C-92.34196777 353.83476318 -92.30893555 353.16952637 -92.27490234 352.48413086 C-92.05519666 347.71151958 -91.94580941 342.93618175 -91.828125 338.16015625 C-89.72862931 256.66348867 -59.62125885 182.82252804 -3.64453125 123.50390625 C9.34257265 109.55962886 12.91918491 97.3401207 12.46484375 78.5625 C11.27038821 55.85130094 -0.33381043 34.63741122 -12.84765625 16.17578125 C-15.86228155 11.72770436 -16.56290511 9.44141603 -16 4 C-11.91563113 -1.49277193 -6.17746967 -0.46832803 0 0 Z " fill="#0C3251" transform="translate(356,228)"/>
<path d="M0 0 C1.14339844 0.07089844 2.28679687 0.14179688 3.46484375 0.21484375 C22.23268656 1.93861879 40.19802592 8.71787676 57 17 C57.72413086 17.35320312 58.44826172 17.70640625 59.19433594 18.0703125 C71.0602475 23.91652147 81.65300834 30.83874639 91.921875 39.16015625 C92.58171387 39.69471436 93.24155273 40.22927246 93.92138672 40.7800293 C95.18027928 41.80781549 96.43249552 42.84386144 97.67626953 43.88989258 C104.11712153 49.20166734 110.17864024 52.76839911 118.75 52.6875 C119.52730469 52.6860498 120.30460937 52.68459961 121.10546875 52.68310547 C131.81487881 52.33500986 142.31654014 49.79523271 152.77685547 47.64477539 C162.73111655 45.60070171 172.55172376 43.83942592 182.71142578 43.15673828 C184.47660368 43.035846 186.24041803 42.89493452 188.00341797 42.74560547 C196.7275086 42.03905506 205.38507913 41.84484792 214.13085938 41.86962891 C216.3659549 41.87497835 218.60084808 41.86965042 220.8359375 41.86328125 C234.87825038 41.85479752 248.7354821 42.52829123 262.625 44.75 C263.73182129 44.9248291 264.83864258 45.0996582 265.97900391 45.27978516 C316.71723838 53.55098153 368.79737606 71.36985268 399.98339844 114.46142578 C402.74338186 118.30532628 405.46905813 122.15341945 407.984375 126.1640625 C410.06334756 129.08912854 412.07851433 130.91715945 414.9375 133.0625 C428.51913265 143.55739796 428.51913265 143.55739796 431 151 C432.06239379 162.44250363 429.40270439 170.84676519 422.09765625 179.65625 C378.47550511 228.39608368 310.20062972 246.44589419 248.87890625 260.75 C248.02907669 260.94852066 247.17924713 261.14704132 246.30366516 261.35157776 C245.08129402 261.63387489 245.08129402 261.63387489 243.83422852 261.921875 C243.04505035 262.10482117 242.25587219 262.28776733 241.44277954 262.47625732 C239.72134806 262.8453398 237.99021604 263.17052513 236.25424194 263.46368408 C235.36008575 263.61649841 234.46592957 263.76931274 233.54467773 263.92675781 C232.73578598 264.05238098 231.92689423 264.17800415 231.0934906 264.30743408 C228.5184559 265.15930381 227.79174571 266.13263249 226.40625 268.421875 C225.73837141 269.84984554 225.10429514 271.29398178 224.5 272.75 C223.76604673 274.30599407 223.02368175 275.85804506 222.2734375 277.40625 C221.90186523 278.18226563 221.53029297 278.95828125 221.14746094 279.7578125 C206.84932129 307.6969858 178.6440745 332.06363907 149 341.9375 C146.67410503 342.64975928 144.34140879 343.34052628 142 344 C141.14792969 344.24492188 140.29585938 344.48984375 139.41796875 344.7421875 C131.32428681 346.81167535 123.64971485 347.13257892 116.04296875 343.3359375 C111.03918918 340.06386749 107.80008282 335.67718429 106 330 C104.95498359 319.67134941 106.5259652 310.21500885 108.84375 300.1953125 C110.2044598 294.2734479 111.230399 288.30103674 112.25 282.3125 C112.51248535 280.77807251 112.51248535 280.77807251 112.78027344 279.21264648 C113.18971942 276.80890197 113.59645253 274.40474065 114 272 C68.93713559 282.12334088 31.80022469 295.67979778 -3 327 C-3.81984375 327.73476563 -4.6396875 328.46953125 -5.484375 329.2265625 C-13.51591352 336.83089152 -24.6616783 348.8027796 -26.5 360.0625 C-25.84116992 363.93312673 -23.92696909 365.59971393 -21 368 C-18.00782425 370.0349529 -14.91413685 371.88762376 -11.8125 373.75 C-4.47373786 378.26471273 1.92089028 382.85703408 8 389 C8.86625 389.825 9.7325 390.65 10.625 391.5 C11.40875 392.325 12.1925 393.15 13 394 C13.59167969 394.59683594 14.18335938 395.19367188 14.79296875 395.80859375 C29.50411053 411.31647048 36.84298273 432.27636501 37.4609375 453.37109375 C37 456 37 456 35.4765625 458.34765625 C32.00732908 460.66230252 28.98661981 460.68684027 25 460 C22.29632322 459.0574969 19.87150653 457.76769221 17.375 456.375 C15.9676954 455.63376925 14.55881013 454.89553255 13.1484375 454.16015625 C12.45073242 453.79293457 11.75302734 453.42571289 11.03417969 453.04736328 C-8.3438263 443.06996942 -34.46690674 433.59546463 -56.40234375 438.80859375 C-77.4283905 446.3197526 -96.47779081 461.09058504 -114.5390625 473.8359375 C-115.29638672 474.36936768 -116.05371094 474.90279785 -116.83398438 475.45239258 C-118.24305611 476.45916734 -119.64100478 477.48175805 -121.02539062 478.5222168 C-125.67109932 481.99367499 -125.67109932 481.99367499 -129.25 482.0625 C-132.45135272 480.82561372 -133.19097299 479.85257517 -135 477 C-143.12272978 453.17922404 -135.89252004 424.97917848 -125.6328125 403.08203125 C-119.49539672 391.06725969 -110.81980483 381.38676306 -101.09008789 372.20019531 C-95.5035989 366.84522901 -92.7142601 362.42797284 -92.375 354.5 C-92.34196777 353.83476318 -92.30893555 353.16952637 -92.27490234 352.48413086 C-92.05519666 347.71151958 -91.94580941 342.93618175 -91.828125 338.16015625 C-89.72862931 256.66348867 -59.62125885 182.82252804 -3.64453125 123.50390625 C9.34257265 109.55962886 12.91918491 97.3401207 12.46484375 78.5625 C11.27038821 55.85130094 -0.33381043 34.63741122 -12.84765625 16.17578125 C-15.86228155 11.72770436 -16.56290511 9.44141603 -16 4 C-11.91563113 -1.49277193 -6.17746967 -0.46832803 0 0 Z M4 15 C5.27083571 17.59774821 6.62046984 20.10656063 8.1015625 22.58984375 C12.92599066 30.84696412 17.10345659 39.11240831 20.5 48.0625 C20.82564941 48.9177124 21.15129883 49.7729248 21.48681641 50.65405273 C28.30625334 69.24181697 30.074647 91.03836942 22.5234375 109.63671875 C17.11345604 121.06190792 9.39852185 129.64795409 0.85131836 138.76220703 C-4.02700251 143.97864333 -8.6091427 149.36419674 -13 155 C-13.45197754 155.57943359 -13.90395508 156.15886719 -14.36962891 156.75585938 C-26.41073169 172.27460953 -36.89885476 188.5917189 -46 206 C-46.37866211 206.72316406 -46.75732422 207.44632813 -47.14746094 208.19140625 C-68.15750167 248.93594318 -77.41888353 294.59089121 -78.23046875 340.16796875 C-78.25245583 341.28622795 -78.25245583 341.28622795 -78.27488708 342.42707825 C-78.34006788 345.99066085 -78.37504341 349.55036333 -78.3581543 353.11450195 C-78.47555186 364.43803069 -81.37434709 371.87524425 -89.1875 380 C-89.6616333 380.50217041 -90.1357666 381.00434082 -90.62426758 381.52172852 C-92.91034542 383.92478791 -95.25281494 386.24054598 -97.65625 388.52734375 C-112.03664087 402.21978382 -122.44936104 423.27830686 -123.07568359 443.43579102 C-123.09821632 446.24962797 -123.08728285 449.06119332 -123.0625 451.875 C-123.05798828 452.84953125 -123.05347656 453.8240625 -123.04882812 454.828125 C-123.03710906 457.21881434 -123.02070219 459.6093744 -123 462 C-116.64781359 458.53113843 -110.73583179 454.49813953 -104.75 450.4375 C-80.03243769 433.82758512 -57.52107902 419.34491148 -26.6328125 424.83984375 C-13.95463945 427.49625676 -1.95107283 432.08915848 10 437 C11.02963867 437.41958984 11.02963867 437.41958984 12.08007812 437.84765625 C15.39942749 439.20263168 18.70710712 440.58194261 22 442 C22 426.20513101 11.26026294 411.45191655 0.8125 400.375 C-7.1670713 392.69602899 -16.89593909 386.9593438 -26.24291992 381.09375 C-33.75225688 376.34985065 -37.88156132 372.37523531 -41 364 C-42.60241389 354.06503388 -37.11511831 345.1001476 -31.5625 337.1875 C-13.45886023 312.36988199 12.07756023 292.78765837 39.70849609 279.70068359 C42.99567516 278.12234518 45.5232358 276.66544775 48 274 C30.63019123 264.34857427 13.68828671 255.801127 -6.6484375 260.91796875 C-9.86968943 262.12301336 -12.91646043 263.47789564 -16 265 C-18.28860701 266.11049454 -20.58028307 267.21468656 -22.875 268.3125 C-23.88304687 268.82425781 -24.89109375 269.33601562 -25.9296875 269.86328125 C-29.52775359 271.19538969 -32.19295775 271.41739861 -36 271 C-38.39415007 267.40877489 -38.69094007 265.13828999 -38 261 C-32.80303767 243.76929481 -20.65619352 229.5473227 -5 221 C13.49225307 212.16299411 28.917975 212.94181287 48.0625 219.5 C49.08690186 219.84530762 50.11130371 220.19061523 51.16674805 220.54638672 C58.96001078 223.2104373 66.64149249 226.12964344 74.3125 229.125 C87.79594743 234.386493 101.31822117 238.96620299 115.375 242.4375 C116.07117432 242.61394043 116.76734863 242.79038086 117.48461914 242.97216797 C121.27771112 243.85776943 124.33424305 244.48149763 128 243 C130.06068275 240.76620755 130.06068275 240.76620755 131.8125 237.9375 C137.03143023 230.39795727 142.83701279 222.74106455 152 220 C156.27272727 220.27272727 156.27272727 220.27272727 158 222 C158.3125 224.828125 158.3125 224.828125 158 228 C156.3125 229.984375 156.3125 229.984375 154 231.75 C134.77139822 247.69860555 128.06658516 270.4846007 123.75 294.0625 C123.22555905 296.85895605 122.69774049 299.65476067 122.16973877 302.45054626 C121.84517917 304.17620902 121.52338835 305.90239552 121.20477295 307.62916565 C121.06082092 308.40775436 120.9168689 309.18634308 120.76855469 309.98852539 C120.64373718 310.66879288 120.51891968 311.34906036 120.39031982 312.04994202 C120.12470651 313.37695986 119.81650507 314.69599973 119.47149658 316.00462341 C118.32412889 320.86029091 118.07475542 324.47761175 120.65234375 328.71875 C122.80451029 331.20481093 122.80451029 331.20481093 125.7421875 331.62890625 C150.00434059 331.11462121 170.84876382 317.8846125 187.875 301.4375 C211.92357022 276.28375652 225.58685639 244.49759396 232.27734375 210.7265625 C232.48415771 209.6960376 232.69097168 208.6655127 232.90405273 207.60375977 C233.29048753 205.63169168 233.6571441 203.65560447 234.00024414 201.67553711 C235.55243313 193.68336953 238.57952213 189.38772489 245.234375 184.7421875 C266.75009935 173.31494723 290.10923232 170.48154429 314.19404984 170.77450562 C317.44317734 170.8136024 320.6919277 170.83254162 323.94125366 170.84692383 C330.83600763 170.88081495 337.73044389 170.93853293 344.625 171 C352.63549148 171.07133616 360.64579884 171.13231851 368.6565361 171.16781616 C371.82536774 171.18696406 374.99361552 171.22446315 378.16226196 171.26293945 C387.0669821 171.33334218 395.82091565 171.2095771 404.63037109 169.80078125 C405.31084818 169.70057175 405.99132526 169.60036224 406.69242287 169.49711609 C411.49639494 168.59474718 413.90021937 166.70524486 417 163 C418.43304064 160.13391871 418.30644155 158.18699217 418 155 C415.34729642 150.31062352 412.42468402 147.48848822 408.0625 144.375 C406.0406668 142.9180532 404.01979409 141.45977234 402 140 C400.72189453 139.10861328 400.72189453 139.10861328 399.41796875 138.19921875 C396.25473307 135.32215625 394.38928686 132.10749463 392.25 128.4375 C388.02323097 121.4498431 383.45614036 115.10149029 378 109 C377.36320312 108.2575 376.72640625 107.515 376.0703125 106.75 C342.6958406 70.38870766 280.87890461 58.70966476 234 56 C204.66694666 55.05831427 176.14962365 56.7561562 147.375 62.6875 C111.08052824 70.16351838 111.08052824 70.16351838 94.29296875 59.23828125 C90.41792979 56.50524232 86.72012617 53.57666722 83.01953125 50.61328125 C60.35528269 32.59097883 32.66855293 19.56090615 4 15 Z " fill="#FCF8F2" transform="translate(356,228)"/>
<path d="M0 0 C3.34134907 0.92815252 4.37104722 1.25831884 6.375 3.9375 C7.10957335 11.49687794 4.02627147 19.61751065 1.875 26.75 C1.52115234 27.93053955 1.16730469 29.1110791 0.80273438 30.32739258 C-2.56129763 41.24061286 -6.7661294 51.61377223 -11.625 61.9375 C-11.94936035 62.63842773 -12.2737207 63.33935547 -12.60791016 64.06152344 C-20.49611704 80.99808777 -30.33939464 97.05903345 -41.625 111.9375 C-42.06166992 112.51693359 -42.49833984 113.09636719 -42.94824219 113.69335938 C-48.61978071 121.18191348 -54.5835279 128.28785279 -61.01171875 135.13671875 C-63.41708732 137.71466982 -65.74245317 140.34553201 -68.0625 143 C-77.21828076 153.1622673 -87.72860153 161.72580927 -98.625 169.9375 C-99.17349609 170.35354492 -99.72199219 170.76958984 -100.28710938 171.19824219 C-114.69271406 182.04977595 -130.3276186 191.3404763 -146.64746094 199.00634766 C-147.97249628 199.63025936 -149.29347349 200.26285884 -150.61035156 200.90380859 C-173.00490287 211.78749565 -197.22609501 218.35697966 -221.625 222.9375 C-222.54925781 223.11539063 -223.47351563 223.29328125 -224.42578125 223.4765625 C-249.23733848 228.05380439 -277.1453882 228.08152897 -301.94775391 223.43798828 C-304.9323048 222.88005199 -307.92408749 222.37647211 -310.91796875 221.87109375 C-355.03465766 214.17366762 -397.08873233 195.22893611 -432.625 167.9375 C-433.15367676 167.53740723 -433.68235352 167.13731445 -434.22705078 166.72509766 C-443.17087152 159.94654254 -451.55188153 152.73022072 -459.625 144.9375 C-460.53161377 144.06375732 -460.53161377 144.06375732 -461.45654297 143.17236328 C-479.11211548 126.0660956 -479.11211548 126.0660956 -480.25 119.125 C-479.625 115.9375 -479.625 115.9375 -477.9375 114 C-475.10961336 112.70070074 -473.69876675 112.33774063 -470.625 112.9375 C-468.90864818 114.55295411 -467.25030855 116.23047696 -465.625 117.9375 C-464.27257202 119.31349365 -464.27257202 119.31349365 -462.89282227 120.71728516 C-462.41784805 121.20194244 -461.94287384 121.68659973 -461.45350647 122.1859436 C-459.27772706 124.40275889 -457.09316843 126.61084846 -454.90844727 128.81884766 C-453.77446742 129.96778851 -452.64320919 131.11942287 -451.51489258 132.27392578 C-443.39516167 140.5762164 -434.94075025 148.00340905 -425.625 154.9375 C-424.74041862 155.59748238 -424.74041862 155.59748238 -423.83796692 156.27079773 C-369.24258646 196.86959553 -300.04441617 218.73896247 -231.98901367 209.27758789 C-229.19617516 208.85625552 -226.41039663 208.4053458 -223.625 207.9375 C-222.77470215 207.79828125 -221.9244043 207.6590625 -221.04833984 207.515625 C-178.01935045 200.27004971 -135.53916302 181.50689464 -101.625 153.9375 C-104.41902057 152.43049671 -106.99700552 151.48877614 -110.08984375 150.7890625 C-111.39646973 150.49068481 -111.39646973 150.49068481 -112.72949219 150.1862793 C-116.70136767 149.31174105 -120.67357294 148.43954887 -124.64990234 147.58544922 C-127.38393325 146.99000215 -130.10752094 146.35992879 -132.83203125 145.72265625 C-152.4583366 141.32896246 -173.03853566 141.19376666 -192.625 145.9375 C-193.38876953 146.12022461 -194.15253906 146.30294922 -194.93945312 146.49121094 C-211.2593787 150.55451211 -226.15754112 157.77897877 -241.1875 165.1796875 C-261.09961366 174.92450601 -283.29130237 182.238662 -305.625 182.9375 C-306.65149658 182.97617187 -306.65149658 182.97617187 -307.69873047 183.015625 C-325.95841048 183.62823746 -348.77399949 182.91567629 -365.06640625 173.53125 C-366.625 171.9375 -366.625 171.9375 -367.12109375 170 C-366.96837349 164.62424699 -366.96837349 164.62424699 -365.625 161.9375 C-361.77900896 160.01450448 -357.66181113 160.35156803 -353.62890625 161.51171875 C-352.18679009 162.02695496 -350.74683924 162.54827456 -349.30859375 163.07421875 C-309.60030377 175.84791902 -270.48436342 162.81228212 -234.47802734 145.7489624 C-211.74169812 134.98484554 -211.74169812 134.98484554 -199.625 131.9375 C-198.43076416 131.63295898 -198.43076416 131.63295898 -197.21240234 131.32226562 C-168.66846136 124.37662809 -140.48231047 127.81918479 -112.5144043 135.20214844 C-98.74862596 139.13072401 -98.74862596 139.13072401 -84.625 138.9375 C-81.25833907 137.07612954 -81.25833907 137.07612954 -78.9375 134.125 C-78.27089355 133.38382935 -78.27089355 133.38382935 -77.59082031 132.62768555 C-76.22942783 131.09356822 -74.92429131 129.52436779 -73.625 127.9375 C-72.81933594 126.98101563 -72.01367188 126.02453125 -71.18359375 125.0390625 C-69.66078474 123.19932369 -68.1550572 121.34529311 -66.66796875 119.4765625 C-64.90441717 117.28476799 -63.08297684 115.20162964 -61.1875 113.125 C-56.15797806 107.46678782 -51.9520783 101.13645321 -47.625 94.9375 C-48.33293701 94.96368408 -49.04087402 94.98986816 -49.77026367 95.0168457 C-65.90590063 95.5316326 -80.18210984 94.66916956 -95.625 89.9375 C-97.04039062 89.5041333 -97.04039062 89.5041333 -98.484375 89.06201172 C-100.45768374 88.45416215 -102.43042046 87.84445256 -104.40258789 87.23291016 C-130.44751165 79.16807545 -159.8355443 75.63381905 -186.625 82.9375 C-187.32383301 83.12022461 -188.02266602 83.30294922 -188.74267578 83.49121094 C-202.26392183 87.0972713 -214.84757857 92.80055779 -227.56640625 98.5546875 C-255.30371244 111.09492555 -282.34743836 120.16151917 -313.0625 120.1875 C-313.77775848 120.18817474 -314.49301697 120.18884949 -315.22994995 120.18954468 C-332.09834986 120.16425472 -350.70185242 118.76377968 -365.625 109.9375 C-367.2263965 106.734707 -367.10729475 103.41285925 -366.625 99.9375 C-365.1875 97.875 -365.1875 97.875 -362.625 96.9375 C-357.46372972 96.69744092 -352.82626446 98.12786052 -348 99.8125 C-308.65271886 113.27211927 -268.86285214 101.0677998 -232.63232422 84.57519531 C-189.19126932 64.83236646 -148.59264938 57.8927758 -102.31152344 72.1171875 C-97.63859983 73.5440344 -92.94463886 74.89669849 -88.25 76.25 C-87.38826172 76.50434814 -86.52652344 76.75869629 -85.63867188 77.02075195 C-77.87451515 79.27202036 -70.50164051 80.13230962 -62.4375 80.125 C-61.18827759 80.12487915 -61.18827759 80.12487915 -59.91381836 80.12475586 C-53.33991755 80.06432813 -47.04551497 79.40107829 -40.625 77.9375 C-39.97152588 77.84839355 -39.31805176 77.75928711 -38.64477539 77.66748047 C-35.84313109 76.65491955 -35.33747747 75.3327776 -33.9609375 72.72265625 C-33.24405762 71.36950317 -33.24405762 71.36950317 -32.51269531 69.98901367 C-32.01350586 69.00263916 -31.51431641 68.01626465 -31 67 C-30.48018555 65.98977783 -29.96037109 64.97955566 -29.42480469 63.9387207 C-19.40906119 45.66329523 -19.40906119 45.66329523 -14.625 25.9375 C-15.54539062 26.33582031 -16.46578125 26.73414063 -17.4140625 27.14453125 C-46.18443089 39.32177479 -70.17988938 34.97665967 -98.73391724 25.19540405 C-108.29281827 21.92478939 -117.57163963 19.1542992 -127.625 17.9375 C-128.63929077 17.80480713 -128.63929077 17.80480713 -129.67407227 17.66943359 C-150.84366087 15.05315033 -172.41658058 17.14214138 -192.625 23.9375 C-193.2653418 24.14793945 -193.90568359 24.35837891 -194.56542969 24.57519531 C-205.74541263 28.29476127 -216.42486346 33.0382586 -227.125 37.9375 C-278.32338474 61.347519 -328.02180376 65.50692016 -381.5 46.25 C-385.40387169 44.78737777 -387.47348739 43.56036962 -389.625 39.9375 C-390.31983656 35.85533522 -389.96168511 34.41702121 -387.5625 31 C-384.625 28.9375 -384.625 28.9375 -381.484375 29.10546875 C-377.07535427 30.0559965 -373.11768067 31.52628648 -368.9375 33.1875 C-354.62053307 38.67952197 -339.48110769 43.05577907 -324.0703125 43.140625 C-323.25110321 43.14632507 -322.43189392 43.15202515 -321.58786011 43.15789795 C-319.85481033 43.16731502 -318.12174292 43.17386879 -316.38867188 43.17773438 C-313.79263036 43.18734223 -311.19741532 43.21835532 -308.6015625 43.25 C-297.88922946 43.31816334 -288.07297548 42.36133378 -277.625 39.9375 C-276.78598145 39.75461426 -275.94696289 39.57172852 -275.08251953 39.38330078 C-258.13632511 35.52744458 -242.26058906 28.09076003 -226.61083984 20.71557617 C-207.59513007 11.77990291 -188.38610119 5.30762912 -167.625 1.9375 C-166.54476563 1.74671875 -165.46453125 1.5559375 -164.3515625 1.359375 C-138.98387879 -1.51243825 -116.24714486 3.10657304 -92.46459961 11.28027344 C-68.06586934 19.65674732 -45.32932509 22.68452517 -20.8984375 12.13671875 C-15.44044196 9.257673 -10.44961593 5.63481714 -5.9375 1.4375 C-3.625 -0.0625 -3.625 -0.0625 0 0 Z " fill="#FAF7F1" transform="translate(785.625,574.0625)"/>
<path d="M0 0 C5.62145893 4.17075985 11.97724909 9.42393477 14.23828125 16.20703125 C14.47016747 18.93034613 14.36921493 21.45742394 14.23828125 24.20703125 C13.24828125 25.19703125 13.24828125 25.19703125 12.23828125 26.20703125 C10.30078125 26.14453125 10.30078125 26.14453125 8.23828125 25.20703125 C7.83996094 24.37300781 7.44164062 23.53898437 7.03125 22.6796875 C5.42858406 19.87539103 5.42858406 19.87539103 2.12890625 19.61328125 C-7.29549279 19.66218597 -7.29549279 19.66218597 -15.76171875 23.20703125 C-16.48331299 24.85066259 -17.15523296 26.51753511 -17.76171875 28.20703125 C-22.37345224 30.89798238 -27.39668031 30.55206223 -32.57421875 30.51953125 C-33.50983643 30.5138916 -34.4454541 30.50825195 -35.40942383 30.50244141 C-54.34824144 30.1758822 -77.66831306 24.96616174 -92.66796875 12.640625 C-94.87178269 10.29601184 -95.74759776 8.26993383 -96.44921875 5.14453125 C-95.48454577 1.02274672 -93.17783529 -0.6190764 -89.76171875 -2.79296875 C-61.75437422 -19.38991366 -26.83091541 -17.41922231 0 0 Z " fill="#FCF8F2" transform="translate(660.76171875,346.79296875)"/>
<path d="M0 0 C-0.91887095 19.29628994 -8.97257269 38.7570318 -22 53 C-22.56332031 53.64324219 -23.12664063 54.28648437 -23.70703125 54.94921875 C-30.68904669 62.48717922 -40.4963804 68.36029971 -50.8125 69.375 C-54 69 -54 69 -55.9375 67.9375 C-57.65989792 64.79665674 -57.49148241 62.50181214 -57 59 C-54.30778561 55.87355748 -51.59472365 54.81196384 -47.75 53.6875 C-36.21985506 50.09269528 -28.35755263 39.79580663 -22.875 29.5 C-21.09982105 25.85471273 -19.74361177 22.26754415 -18.6484375 18.375 C-15.10171425 5.88447482 -15.10171425 5.88447482 -11.50390625 2.99609375 C-8.96538793 1.99763444 -6.69042164 1.40286864 -4 1 C-1 0 -1 0 0 0 Z " fill="#FAF7F2" transform="translate(684,477)"/>
<path d="M0 0 C3.58317958 -0.08720919 7.16608567 -0.14046112 10.75 -0.1875 C11.76578125 -0.21263672 12.7815625 -0.23777344 13.828125 -0.26367188 C14.8078125 -0.27333984 15.7875 -0.28300781 16.796875 -0.29296875 C17.69760742 -0.3086792 18.59833984 -0.32438965 19.52636719 -0.34057617 C22 0 22 0 26 3 C17.42 3 8.84 3 0 3 C0 2.01 0 1.02 0 0 Z " fill="#1C3C58" transform="translate(627,590)"/>
<path d="M0 0 C0.99 0.33 1.98 0.66 3 1 C-3.435 6.94 -3.435 6.94 -10 13 C-10 10 -10 10 -7.8125 7.51953125 C-6.884375 6.62621094 -5.95625 5.73289062 -5 4.8125 C-4.071875 3.91144531 -3.14375 3.01039063 -2.1875 2.08203125 C-1.1046875 1.05142578 -1.1046875 1.05142578 0 0 Z M-14 15 C-14 15.99 -14 16.98 -14 18 C-14.99 18.66 -15.98 19.32 -17 20 C-15.125 16.125 -15.125 16.125 -14 15 Z " fill="#E7EAEA" transform="translate(345,541)"/>
<path d="M0 0 C-3.08046594 1.48519268 -6.16484002 2.96208605 -9.25 4.4375 C-10.55904297 5.06881836 -10.55904297 5.06881836 -11.89453125 5.71289062 C-13.16103516 6.31713867 -13.16103516 6.31713867 -14.453125 6.93359375 C-15.22817383 7.30540771 -16.00322266 7.67722168 -16.80175781 8.06030273 C-18.86119427 8.94066379 -20.8150046 9.52774502 -23 10 C-22.236875 9.401875 -21.47375 8.80375 -20.6875 8.1875 C-18.11972899 6.21091883 -18.11972899 6.21091883 -16.61328125 4.46484375 C-14.66502821 2.69584886 -13.00826971 2.13584181 -10.5 1.375 C-9.33984375 1.01535156 -9.33984375 1.01535156 -8.15625 0.6484375 C-7.4446875 0.43445313 -6.733125 0.22046875 -6 0 C-3 -1 -3 -1 0 0 Z " fill="#122341" transform="translate(296,653)"/>
<path d="M0 0 C1.41687119 4.25061356 0.19320039 6.71851625 -1 11 C-1.66 11 -2.32 11 -3 11 C-2.773125 11.7425 -2.54625 12.485 -2.3125 13.25 C-2 16 -2 16 -3.4375 18.3125 C-3.953125 18.869375 -4.46875 19.42625 -5 20 C-5.73226358 12.38445882 -3.19164467 6.83923859 0 0 Z " fill="#D1D6D8" transform="translate(319,572)"/>
<path d="M0 0 C-1.47721422 3.45201639 -3.43794001 5.64961936 -6.125 8.25 C-6.84945313 8.95640625 -7.57390625 9.6628125 -8.3203125 10.390625 C-8.87460937 10.92171875 -9.42890625 11.4528125 -10 12 C-10.66 11.34 -11.32 10.68 -12 10 C-10.38113585 8.32737283 -8.7547271 6.66204463 -7.125 5 C-6.22007812 4.071875 -5.31515625 3.14375 -4.3828125 2.1875 C-2 0 -2 0 0 0 Z " fill="#ECEFED" transform="translate(342,455)"/>
<path d="M0 0 C0 0.33 0 0.66 0 1 C-13.6332574 3.29612756 -13.6332574 3.29612756 -20 3 C-20 2.67 -20 2.34 -20 2 C-12.84968433 -0.36561846 -7.44613143 -1.34274501 0 0 Z " fill="#0A1E3D" transform="translate(535,271)"/>
<path d="M0 0 C3.96 0 7.92 0 12 0 C11.01 1.485 11.01 1.485 10 3 C7.6171875 3.29296875 7.6171875 3.29296875 4.875 3.1875 C3.96492187 3.16042969 3.05484375 3.13335938 2.1171875 3.10546875 C1.41851563 3.07066406 0.71984375 3.03585937 0 3 C0 2.01 0 1.02 0 0 Z " fill="#183B57" transform="translate(528,783)"/>
<path d="M0 0 C-0.99 0.33 -1.98 0.66 -3 1 C-3 1.66 -3 2.32 -3 3 C-7.95 2.67 -12.9 2.34 -18 2 C-18 1.67 -18 1.34 -18 1 C-16.12528812 0.83012319 -14.25021305 0.66425224 -12.375 0.5 C-11.33085938 0.4071875 -10.28671875 0.314375 -9.2109375 0.21875 C-6.12853212 0.00875645 -3.08834771 -0.03709727 0 0 Z " fill="#041939" transform="translate(640,377)"/>
<path d="M0 0 C0.66 0.99 1.32 1.98 2 3 C1.25 5.4375 1.25 5.4375 0 8 C-0.4640625 9.051875 -0.4640625 9.051875 -0.9375 10.125 C-2.06484415 12.11443085 -3.36263441 13.42063374 -5 15 C-3.33333333 10 -1.66666667 5 0 0 Z " fill="#E8EBEA" transform="translate(768,610)"/>
<path d="M0 0 C4.29 0.33 8.58 0.66 13 1 C13.33 1.99 13.66 2.98 14 4 C9.03083364 3.48594831 4.70973649 2.76615118 0 1 C0 0.67 0 0.34 0 0 Z " fill="#122644" transform="translate(668,577)"/>
<path d="M0 0 C-1.66666667 3.33333333 -3.33333333 6.66666667 -5 10 C-5.33 10 -5.66 10 -6 10 C-6.33663062 6.29706315 -6.47736015 4.60465619 -4.125 1.625 C-2 0 -2 0 0 0 Z " fill="#EEF1EF" transform="translate(571,345)"/>
<path d="M0 0 C1 3 1 3 0.0625 5.1875 C-0.4634375 6.0846875 -0.4634375 6.0846875 -1 7 C-2.65 5.68 -4.3 4.36 -6 3 C-4.02 2.01 -2.04 1.02 0 0 Z " fill="#0A1D3A" transform="translate(771,599)"/>
<path d="M0 0 C1.18771723 3.42943519 0.80226223 5.37784675 -0.4375 8.75 C-0.86869141 9.94882812 -0.86869141 9.94882812 -1.30859375 11.171875 C-1.53675781 11.77515625 -1.76492188 12.3784375 -2 13 C-4 10 -4 10 -4 8 C-3.34 8 -2.68 8 -2 8 C-1.7834375 6.576875 -1.7834375 6.576875 -1.5625 5.125 C-1 2 -1 2 0 0 Z " fill="#EEEEED" transform="translate(295,465)"/>
<path d="M0 0 C0 0.33 0 0.66 0 1 C-3.63 1.33 -7.26 1.66 -11 2 C-8.74490247 -2.51019507 -4.15738698 -0.70597137 0 0 Z " fill="#0C2341" transform="translate(357,490)"/>
<path d="M0 0 C2.475 0.495 2.475 0.495 5 1 C5.33 3.64 5.66 6.28 6 9 C3.72494996 6.83328568 1.76424908 4.60436769 0 2 C0 1.34 0 0.68 0 0 Z " fill="#11233E" transform="translate(360,243)"/>
<path d="M0 0 C1.45945288 0.08708669 2.91765868 0.19526907 4.375 0.3125 C5.59316406 0.39951172 5.59316406 0.39951172 6.8359375 0.48828125 C9 1 9 1 11 4 C9.02 4 7.04 4 5 4 C4.67 3.34 4.34 2.68 4 2 C1.98330173 0.86649466 1.98330173 0.86649466 0 0 Z " fill="#EFEDEA" transform="translate(443,689)"/>
<path d="M0 0 C2.1519437 3.22791555 2.20086443 4.28400809 2 8 C-0.31 7.01 -2.62 6.02 -5 5 C-4.01 4.67 -3.02 4.34 -2 4 C-1.34 4.33 -0.68 4.66 0 5 C0 3.35 0 1.7 0 0 Z " fill="#061732" transform="translate(376,662)"/>
<path d="M0 0 C0.33 0.99 0.66 1.98 1 3 C-0.32 4.32 -1.64 5.64 -3 7 C-3.99 6.67 -4.98 6.34 -6 6 C-4 4 -2 2 0 0 Z " fill="#122A47" transform="translate(763,421)"/>
<path d="M0 0 C2.475 0.99 2.475 0.99 5 2 C3.68 3.32 2.36 4.64 1 6 C0.34 5.67 -0.32 5.34 -1 5 C-0.67 3.35 -0.34 1.7 0 0 Z " fill="#16304C" transform="translate(235,683)"/>
<path d="M0 0 C0.99 0 1.98 0 3 0 C2.67 1.98 2.34 3.96 2 6 C1.01 6.33 0.02 6.66 -1 7 C-0.67 4.69 -0.34 2.38 0 0 Z " fill="#1B3754" transform="translate(791,584)"/>
<path d="M0 0 C0.66 0.66 1.32 1.32 2 2 C0.35 3.32 -1.3 4.64 -3 6 C-3 3 -3 3 -1.5 1.3125 C-0.7575 0.6628125 -0.7575 0.6628125 0 0 Z " fill="#EAECEB" transform="translate(552,519)"/>
<path d="M0 0 C0.66 0.33 1.32 0.66 2 1 C1.01 1 0.02 1 -1 1 C-0.67 0.67 -0.34 0.34 0 0 Z M-3 2 C-2.34 2.33 -1.68 2.66 -1 3 C-1.99 4.32 -2.98 5.64 -4 7 C-4.99 6.67 -5.98 6.34 -7 6 C-5.68 4.68 -4.36 3.36 -3 2 Z " fill="#EAECEC" transform="translate(601,412)"/>
<path d="M0 0 C2.31 0 4.62 0 7 0 C7.33 0.99 7.66 1.98 8 3 C2.25 3.125 2.25 3.125 0 2 C0 1.34 0 0.68 0 0 Z " fill="#EDEEEB" transform="translate(620,333)"/>
</svg>
